<?xml version="1.0" standalone="no"?>
<!DOCTYPE svg PUBLIC "-//W3C//DTD SVG 20010904//EN"
 "http://www.w3.org/TR/2001/REC-SVG-20010904/DTD/svg10.dtd">
<svg version="1.0" xmlns="http://www.w3.org/2000/svg"
 width="500.000000pt" height="500.000000pt" viewBox="0 0 500.000000 500.000000"
 preserveAspectRatio="xMidYMid meet">
<metadata>
Created by potrace 1.11, written by Peter Selinger 2001-2013
</metadata>
<g transform="translate(0.000000,500.000000) scale(0.100000,-0.100000)"
fill="#000000" stroke="none">
<path d="M2785 3934 c-193 -28 -318 -84 -426 -193 -133 -132 -183 -262 -182
-471 0 -190 38 -303 169 -511 30 -47 54 -90 53 -95 0 -5 -30 -31 -66 -59 -95
-72 -283 -260 -330 -330 -81 -120 -124 -229 -139 -345 -8 -65 -20 -80 -127
-161 -157 -119 -337 -181 -522 -182 -169 0 -292 50 -395 159 -64 69 -111 156
-136 255 -24 94 -15 270 18 361 72 194 216 312 422 346 87 14 103 14 178 -1
117 -23 199 -67 284 -151 39 -39 82 -86 97 -105 19 -26 29 -32 39 -24 7 5 95
74 196 152 207 161 195 136 117 247 -24 33 -81 96 -128 140 -136 128 -286 205
-477 244 -150 31 -380 25 -525 -14 -183 -50 -344 -138 -474 -261 -128 -121
-226 -271 -281 -430 -27 -78 -60 -270 -60 -348 0 -79 24 -231 50 -326 92 -328
354 -595 693 -705 167 -54 407 -79 559 -57 164 23 399 118 557 225 l85 57 50
-49 c192 -185 507 -272 841 -231 171 21 379 100 523 198 34 22 65 41 69 40 4
0 44 -45 87 -100 l79 -99 329 0 c180 0 328 2 328 5 0 3 -101 128 -225 279
-124 151 -225 277 -225 280 0 4 423 606 453 644 7 9 -58 12 -320 12 l-330 0
-77 -110 c-42 -61 -80 -110 -84 -109 -4 0 -81 92 -172 205 -90 112 -181 223
-201 246 l-36 43 127 125 c131 129 191 207 241 313 49 106 62 176 57 312 -6
139 -24 200 -95 307 -81 123 -204 206 -366 247 -75 20 -244 33 -302 25z m175
-506 c85 -44 110 -157 58 -269 -23 -49 -129 -167 -171 -191 -12 -6 -27 6 -62
52 -98 127 -129 254 -83 339 46 86 163 117 258 69z m-16 -1414 c125 -152 230
-282 233 -289 6 -18 -65 -69 -152 -111 -180 -84 -376 -66 -499 47 -129 118
-135 298 -14 450 31 40 186 179 199 179 3 0 108 -124 233 -276z"/>
<path d="M4560 1620 c-91 -42 -160 -144 -160 -234 0 -139 124 -266 260 -266
86 0 191 65 233 144 29 56 31 174 3 230 -24 47 -74 99 -119 122 -52 27 -163
29 -217 4z"/>
</g>
</svg>
